<svg width="40" height="40" viewBox="0 0 40 40" fill="none" xmlns="http://www.w3.org/2000/svg">
<rect width="40" height="40" fill="#1E1E1E"/>
<rect width="1440" height="916" transform="translate(-30 -250)" fill="#0C0E13"/>
<circle cx="20" cy="20" r="20" fill="white"/>
<path d="M18 30C22.4183 30 26 26.4183 26 22C26 17.5817 22.4183 14 18 14C13.5817 14 10 17.5817 10 22C10 26.4183 13.5817 30 18 30Z" fill="#3DDAB4"/>
<path d="M23.792 23.4635C27.5058 23.4635 30.5165 20.4528 30.5165 16.739C30.5165 13.0252 27.5058 10.0145 23.792 10.0145C20.0782 10.0145 17.0675 13.0252 17.0675 16.739C17.0675 20.4528 20.0782 23.4635 23.792 23.4635Z" fill="#F5BC00"/>
<path d="M10.035 30H17.9545L13.461 25.7745L10.035 30Z" fill="#3DDAB4"/>
<path d="M18 14C17.8805 14 17.7645 14.0125 17.646 14.018C17.2765 14.8505 17.0675 15.77 17.0675 16.7395C17.0675 20.4535 20.078 23.464 23.792 23.464C24.534 23.464 25.2455 23.339 25.913 23.1175C25.9645 22.751 26 22.38 26 22C26 17.5815 22.4185 14 18 14Z" fill="#00B569"/>
<path d="M30.4875 10.0145H23.8305L27.6075 13.5665L30.4875 10.0145Z" fill="#F5BC00"/>
<!-- <rect x="24.5" width="25" height="18" rx="9" fill="#FE3438"/> -->
<!-- <path d="M30.2695 13V12.125L32.9766 9.32031C33.2656 9.01562 33.5039 8.7487 33.6914 8.51953C33.8815 8.28776 34.0234 8.06771 34.1172 7.85937C34.2109 7.65104 34.2578 7.42969 34.2578 7.19531C34.2578 6.92969 34.1953 6.70052 34.0703 6.50781C33.9453 6.3125 33.7747 6.16276 33.5586 6.05859C33.3424 5.95182 33.099 5.89844 32.8281 5.89844C32.5417 5.89844 32.2917 5.95703 32.0781 6.07422C31.8646 6.19141 31.7005 6.35677 31.5859 6.57031C31.4714 6.78385 31.4141 7.03385 31.4141 7.32031H30.2617C30.2617 6.83333 30.3737 6.40755 30.5977 6.04297C30.8216 5.67839 31.1289 5.39583 31.5195 5.19531C31.9102 4.99219 32.3542 4.89062 32.8516 4.89062C33.3542 4.89062 33.7969 4.99089 34.1797 5.19141C34.5651 5.38932 34.8659 5.66016 35.082 6.00391C35.2982 6.34505 35.4062 6.73047 35.4062 7.16016C35.4062 7.45703 35.3503 7.7474 35.2383 8.03125C35.1289 8.3151 34.9375 8.63151 34.6641 8.98047C34.3906 9.32682 34.0104 9.7474 33.5234 10.2422L31.9336 11.9062V11.9648H35.5352V13H30.2695ZM39.8762 13.1094C39.3867 13.1094 38.9466 13.0156 38.5559 12.8281C38.1679 12.638 37.858 12.3776 37.6262 12.0469C37.3945 11.7161 37.2708 11.3385 37.2552 10.9141H38.427C38.4557 11.2578 38.608 11.5404 38.8841 11.7617C39.1601 11.9831 39.4908 12.0937 39.8762 12.0937C40.1835 12.0937 40.4557 12.0234 40.6927 11.8828C40.9322 11.7396 41.1197 11.543 41.2552 11.293C41.3932 11.043 41.4622 10.7578 41.4622 10.4375C41.4622 10.112 41.3919 9.82161 41.2512 9.56641C41.1106 9.3112 40.9166 9.11068 40.6692 8.96484C40.4244 8.81901 40.1432 8.74479 39.8255 8.74219C39.5833 8.74219 39.3398 8.78385 39.095 8.86719C38.8502 8.95052 38.6523 9.0599 38.5012 9.19531L37.3958 9.03125L37.845 5H42.2434V6.03516H38.8489L38.595 8.27344H38.6419C38.7981 8.1224 39.0052 7.99609 39.263 7.89453C39.5234 7.79297 39.802 7.74219 40.0989 7.74219C40.5859 7.74219 41.0195 7.85807 41.3997 8.08984C41.7825 8.32161 42.0833 8.63802 42.302 9.03906C42.5234 9.4375 42.6328 9.89583 42.6302 10.4141C42.6328 10.9323 42.5156 11.3945 42.2786 11.8008C42.0442 12.207 41.7187 12.5273 41.302 12.7617C40.888 12.9935 40.4127 13.1094 39.8762 13.1094Z" fill="white"/> -->
</svg>
